PathFileType	4	(x/y/z)	TRC_MarkerData\Passive\Passive_Pref0004.trc
DataRate	CameraRate	NumFrames	NumMarkers	Units	OrigDataRate	OrigDataStartFrame	OrigNumFrames
240	240	6	49	mm	240	33	259
Frame#	Time	R_AC			L_AC			HEAD			STERN			L_IC			R_IC			L_ASIS			R_ASIS			L_GT			R_GT			L_PSIS			R_PSIS			SACRAL			L_LAT_KNEE			L_MED_KNEE			R_LAT_KNEE			R_MED_KNEE			L_LAT_ANK			L_MED_ANK			R_LAT_ANK			R_MED_ANK			L_THIGH_PROX_POST			L_THIGH_PROX_ANT			L_THIGH_DIST_ANT			L_THIGH_DIST_POST			R_THIGH_PROX_POST			R_THIGH_PROX_ANT			R_THIGH_DIST_ANT			R_THIGH_DIST_POST			L_SHANK_PROX_POST			L_SHANK_PROX_ANT			L_SHANK_DIST_ANT			L_SHANK_DIST_POST			R_SHANK_PROX_POST			R_SHANK_PROX_ANT			R_SHANK_DIST_ANT			R_SHANK_DIST_POST			L_HEEL_LAT			L_HEEL_SUP			L_HEEL_MED			R_HEEL_LAT			R_HEEL_SUP			R_HEEL_MED			L_1ST_MET			L_5TH_MET			L_TOE			R_1ST_MET			R_5TH_MET			R_TOE			
		X1	Y1	Z1	X2	Y2	Z2	X3	Y3	Z3	X4	Y4	Z4	X5	Y5	Z5	X6	Y6	Z6	X7	Y7	Z7	X8	Y8	Z8	X9	Y9	Z9	X10	Y10	Z10	X11	Y11	Z11	X12	Y12	Z12	X13	Y13	Z13	X14	Y14	Z14	X15	Y15	Z15	X16	Y16	Z16	X17	Y17	Z17	X18	Y18	Z18	X19	Y19	Z19	X20	Y20	Z20	X21	Y21	Z21	X22	Y22	Z22	X23	Y23	Z23	X24	Y24	Z24	X25	Y25	Z25	X26	Y26	Z26	X27	Y27	Z27	X28	Y28	Z28	X29	Y29	Z29	X30	Y30	Z30	X31	Y31	Z31	X32	Y32	Z32	X33	Y33	Z33	X34	Y34	Z34	X35	Y35	Z35	X36	Y36	Z36	X37	Y37	Z37	X38	Y38	Z38	X39	Y39	Z39	X40	Y40	Z40	X41	Y41	Z41	X42	Y42	Z42	X43	Y43	Z43	X44	Y44	Z44	X45	Y45	Z45	X46	Y46	Z46	X47	Y47	Z47	X48	Y48	Z48	X49	Y49	Z49	

33	0.13385	-610.18	1475.8	432.58	-602.83	1482.8	81.422	-633.27	1764	258.35	-566.79	1420.8	260.91	-629.22	1057.8	108.39	-643.08	1066.2	436.93	-564.36	987.46	137.31	-571.91	970.1	411.97	-625.52	901.28	76.771	-671.22	899.2	464.24	-753.21	1033.6	219.6	-755.8	1039.5	312.2	-767.27	1004.5	265.35	-472.15	528.11	132.5	-506.72	519.78	265.47	-779.79	507.61	420.9	-757.14	506.07	289.07	-465.14	107.9	154.96	-465.65	108.71	228.85	-1096	220.96	405.28	-1067.8	219.3	316	-578.81	733.55	105.2	-518.89	753.01	122.52	-491.14	686.05	137.13	-551.46	663.83	118.82	-763.11	710.59	424.84	-698.43	703.94	445.13	-711.37	630.19	436.54	-774.75	637.43	414.36	-481.67	441.32	134.84	-440.64	455.76	162.15	-447.06	396.9	167.18	-502.42	381.81	155.73	-935.32	434.8	413.01	-886.68	388.96	428.43	-941.36	336.23	418.61	-988.43	384.53	399.42	-543.36	38.947	159.87	-551.28	67.856	191.9	-541.62	38.434	226.28	-1175.6	263.39	371.09	-1145.9	273.55	339.67	-1163.8	254.68	304.73	-333.29	56.22	241.28	-362.9	38.457	136.26	-273.38	65.585	208.67	-1106.1	67.211	317.57	-1137.3	86.738	419.11	-1085.3	29.096	369.01
34	0.13803	-603.53	1476.6	431.78	-596.25	1483.5	80.758	-627.29	1764.7	257.43	-560.11	1421.6	260.15	-623.27	1058.5	107.88	-636.4	1066.8	436.33	-558.12	988.18	136.55	-565.1	970.78	411.04	-619.46	902.05	76.191	-663.71	899.32	463.55	-746.65	1034.3	219.36	-749.35	1040.3	311.92	-760.91	1005.2	265.09	-466.47	528.24	131.69	-501	520.56	264.71	-767.88	506.5	421.4	-745.18	504.7	289.45	-464.47	107.98	154.84	-464.9	108.91	228.74	-1086.1	223.29	406.79	-1058.1	221.32	317.29	-572.62	734.24	104.42	-512.78	753.59	121.87	-485.1	686.6	136.46	-545.42	664.47	118.09	-753.55	709.23	424.8	-688.73	703.44	444.87	-700.77	629.5	436.55	-764.32	635.89	414.56	-477.03	441.57	134.18	-435.79	455.58	161.41	-442.92	396.82	166.54	-498.48	382.36	155.19	-923.59	435.33	413.64	-875.44	389.05	429.29	-930.64	336.84	419.65	-977.21	385.56	400.28	-543.25	39.206	159.89	-551.16	68.091	191.92	-541.47	38.672	226.33	-1164.8	267.73	372.58	-1134.5	277.38	341.34	-1153.2	259.16	306.25	-333.13	56.002	241.23	-362.84	38.318	136.22	-273.21	65.139	208.59	-1099.4	68.83	317.95	-1130.6	89.263	419.73	-1080.6	28.544	369.31
35	0.14222	-596.95	1477.4	431.03	-589.69	1484.2	80.134	-621.32	1765.3	256.51	-553.49	1422.4	259.43	-617.32	1059.2	107.36	-629.8	1067.5	435.72	-551.89	988.89	135.8	-558.39	971.52	410.15	-613.4	902.8	75.615	-656.27	899.52	462.87	-740.15	1035.1	219.08	-742.95	1041	311.6	-754.58	1006	264.78	-460.95	528.34	130.92	-495.45	521.27	263.97	-755.84	505.47	421.9	-733.14	503.45	289.81	-463.81	108.07	154.72	-464.18	109.12	228.63	-1076	225.61	408.22	-1048.1	223.39	318.5	-566.47	734.9	103.64	-506.72	754.12	121.26	-479.14	687.09	135.83	-539.47	665.06	117.37	-743.94	707.93	424.79	-678.97	703.02	444.62	-690.11	628.91	436.57	-753.81	634.43	414.78	-472.51	441.8	133.55	-431.09	455.38	160.7	-438.9	396.72	165.93	-494.64	382.86	154.68	-911.68	435.87	414.29	-864.01	389.18	430.13	-919.71	337.46	420.64	-965.81	386.6	401.15	-543.14	39.47	159.92	-551.03	68.331	191.94	-541.33	38.912	226.39	-1153.8	271.82	374.05	-1123.1	281.04	342.96	-1142.3	263.41	307.73	-332.98	55.813	241.19	-362.78	38.217	136.19	-273.05	64.735	208.53	-1092.1	70.51	318.35	-1123.3	91.778	420.35	-1075.2	28.209	369.6
36	0.1464	-590.46	1478.2	430.31	-583.13	1485	79.549	-615.34	1766	255.6	-546.93	1423.1	258.76	-611.35	1059.9	106.82	-623.28	1068.2	435.11	-545.68	989.6	135.08	-551.76	972.3	409.31	-607.32	903.51	75.044	-648.9	899.79	462.2	-733.72	1035.8	218.76	-736.6	1041.8	311.23	-748.28	1006.7	264.43	-455.61	528.4	130.2	-490.08	521.92	263.27	-743.69	504.53	422.38	-721.03	502.35	290.15	-463.16	108.18	154.62	-463.46	109.34	228.53	-1065.6	227.92	409.56	-1037.9	225.51	319.64	-560.36	735.52	102.88	-500.71	754.59	120.68	-473.26	687.5	135.25	-533.59	665.61	116.68	-734.26	706.71	424.8	-669.16	702.68	444.39	-679.39	628.4	436.59	-743.24	633.06	415.01	-468.14	441.99	132.96	-426.55	455.16	160.04	-435.01	396.6	165.36	-490.92	383.34	154.2	-899.62	436.44	414.93	-852.41	389.33	430.94	-908.59	338.11	421.58	-954.24	387.65	402.04	-543.02	39.743	159.96	-550.9	68.577	191.97	-541.18	39.157	226.45	-1142.8	275.66	375.46	-1111.7	284.51	344.5	-1131.4	267.4	309.15	-332.83	55.645	241.16	-362.72	38.145	136.17	-272.89	64.362	208.49	-1084.3	72.249	318.74	-1115.4	94.262	420.98	-1069.1	28.11	369.9
37	0.15058	-584.04	1479	429.64	-576.58	1485.7	79.002	-609.35	1766.7	254.71	-540.43	1423.9	258.14	-605.35	1060.6	106.26	-616.84	1068.9	434.5	-539.47	990.3	134.37	-545.22	973.13	408.51	-601.24	904.2	74.479	-641.59	900.14	461.54	-727.33	1036.6	218.39	-730.3	1042.5	310.81	-742.01	1007.5	264.04	-450.45	528.43	129.53	-484.91	522.51	262.62	-731.44	503.68	422.85	-708.87	501.38	290.46	-462.51	108.3	154.53	-462.76	109.56	228.44	-1055.1	230.2	410.81	-1027.5	227.68	320.7	-554.32	736.1	102.13	-494.76	755.02	120.14	-467.48	687.85	134.71	-527.81	666.12	116.02	-724.53	705.57	424.84	-659.31	702.42	444.16	-668.61	627.99	436.62	-732.6	631.78	415.26	-463.91	442.16	132.41	-422.16	454.93	159.43	-431.25	396.47	164.83	-487.32	383.77	153.76	-887.41	437.02	415.57	-840.64	389.53	431.71	-897.29	338.78	422.48	-942.5	388.72	402.93	-542.91	40.023	160	-550.76	68.832	192.01	-541.03	39.408	226.52	-1131.7	279.23	376.8	-1100.2	287.78	345.95	-1120.4	271.12	310.5	-332.68	55.491	241.15	-362.65	38.094	136.17	-272.72	64.011	208.46	-1075.9	74.04	319.15	-1106.9	96.695	421.61	-1062.1	28.26	370.21
38	0.15476	-577.71	1479.8	429.01	-570.05	1486.5	78.49	-603.35	1767.5	253.83	-534	1424.7	257.56	-599.32	1061.2	105.69	-610.47	1069.7	433.89	-533.27	991	133.69	-538.76	974	407.77	-595.14	904.87	73.92	-634.36	900.55	460.9	-721.01	1037.3	217.97	-724.03	1043.3	310.35	-735.76	1008.2	263.6	-445.48	528.42	128.92	-479.92	523.03	262.02	-719.09	502.94	423.31	-696.67	500.57	290.75	-461.88	108.43	154.44	-462.06	109.79	228.36	-1044.4	232.45	411.95	-1017	229.89	321.68	-548.36	736.64	101.42	-488.88	755.39	119.64	-461.8	688.12	134.22	-522.13	666.58	115.39	-714.75	704.52	424.91	-649.41	702.26	443.96	-657.78	627.69	436.64	-721.9	630.59	415.51	-459.83	442.3	131.91	-417.92	454.68	158.87	-427.63	396.33	164.34	-483.84	384.18	153.35	-875.06	437.63	416.2	-828.72	389.76	432.44	-885.81	339.47	423.31	-930.62	389.81	403.82	-542.79	40.312	160.04	-550.61	69.097	192.06	-540.89	39.664	226.6	-1120.6	282.51	378.06	-1088.8	290.84	347.31	-1109.4	274.56	311.76	-332.53	55.347	241.15	-362.59	38.059	136.17	-272.56	63.676	208.44	-1066.8	75.876	319.57	-1097.9	99.057	422.23	-1054.3	28.655	370.52
